<svg height="512pt" fill="#002957" viewBox="-2 0 512 512" width="512pt" xmlns="http://www.w3.org/2000/svg"><path d="m139.464844 406.984375c-1.660156-6.6875-7.667969-11.386719-14.558594-11.386719h-88.460938c-6.894531 0-12.898437 4.699219-14.558593 11.386719l-21.445313 86.402344c-1.109375 4.476562-.101562 9.21875 2.742188 12.851562 2.84375 3.636719 7.203125 5.761719 11.816406 5.761719h131.347656c4.617188 0 8.976563-2.125 11.816406-5.757812 2.84375-3.636719 3.855469-8.378907 2.742188-12.855469zm0 0"/><path d="m313.085938 406.984375c-1.660157-6.6875-7.664063-11.386719-14.558594-11.386719h-88.457032c-6.894531 0-12.898437 4.699219-14.5625 11.386719l-21.441406 86.402344c-1.113281 4.476562-.101562 9.21875 2.742188 12.851562 2.84375 3.636719 7.199218 5.761719 11.816406 5.761719h131.347656c4.613282 0 8.972656-2.125 11.816406-5.757812 2.839844-3.636719 3.851563-8.378907 2.742188-12.855469zm0 0"/><path d="m508.152344 493.386719-21.441406-86.398438c-1.660157-6.691406-7.667969-11.386719-14.558594-11.386719h-88.460938c-6.894531 0-12.898437 4.695313-14.558594 11.386719l-21.445312 86.398438c-1.109375 4.480469-.101562 9.21875 2.742188 12.855469 2.84375 3.632812 7.203124 5.757812 11.816406 5.757812h131.347656c4.617188 0 8.976562-2.125 11.816406-5.757812 2.84375-3.636719 3.855469-8.378907 2.742188-12.855469zm0 0"/><path d="m211.238281 263.769531h-88.457031c-6.894531 0-12.898438 4.699219-14.558594 11.386719l-21.445312 86.402344c-1.109375 4.476562-.101563 9.21875 2.742187 12.851562 2.84375 3.636719 7.203125 5.761719 11.816407 5.761719h131.347656c4.613281 0 8.972656-2.125 11.816406-5.761719 2.839844-3.632812 3.855469-8.375 2.742188-12.851562l-21.445313-86.402344c-1.660156-6.6875-7.664063-11.386719-14.558594-11.386719zm0 0"/><path d="m188.625 252.910156h131.347656c4.613282 0 8.972656-2.125 11.816406-5.761718 2.839844-3.632813 3.851563-8.375 2.742188-12.851563l-21.445312-86.402344c-1.660157-6.6875-7.664063-11.386719-14.558594-11.386719h-88.457032c-6.894531 0-12.898437 4.695313-14.5625 11.386719l-21.441406 86.402344c-1.113281 4.476563-.101562 9.21875 2.742188 12.851563 2.84375 3.636718 7.199218 5.761718 11.816406 5.761718zm0 0"/><path d="m387.265625 263.769531h-88.460937c-6.890626 0-12.898438 4.699219-14.558594 11.386719l-21.445313 86.402344c-1.109375 4.476562-.097656 9.21875 2.746094 12.851562 2.839844 3.636719 7.199219 5.761719 11.8125 5.761719h131.351563c4.613281 0 8.972656-2.125 11.8125-5.761719 2.84375-3.632812 3.855468-8.375 2.746093-12.851562l-21.445312-86.402344c-1.660157-6.6875-7.667969-11.386719-14.558594-11.386719zm0 0"/><path d="m259.535156 90.683594c8.285156 0 15-6.714844 15-15v-60.683594c0-8.285156-6.714844-15-15-15s-15 6.714844-15 15v60.683594c0 8.285156 6.714844 15 15 15zm0 0"/><path d="m30.191406 220.21875h77.734375c8.285157 0 15-6.71875 15-15 0-8.285156-6.714843-15-15-15h-77.734375c-8.285156 0-15 6.714844-15 15 0 8.28125 6.714844 15 15 15zm0 0"/><path d="m138.457031 124.214844c2.925781 2.917968 6.757813 4.375 10.589844 4.375 3.847656 0 7.691406-1.46875 10.621094-4.410156 5.851562-5.867188 5.835937-15.363282-.03125-21.210938l-54.96875-54.796875c-5.867188-5.851563-15.367188-5.835937-21.214844.03125s-5.832031 15.367187.035156 21.214844zm0 0"/><path d="m366.203125 128.589844c3.832031 0 7.664063-1.457032 10.589844-4.375l54.96875-54.796875c5.867187-5.847657 5.882812-15.347657.035156-21.214844s-15.347656-5.882813-21.214844-.03125l-54.96875 54.796875c-5.867187 5.847656-5.878906 15.34375-.03125 21.210938 2.929688 2.941406 6.777344 4.410156 10.621094 4.410156zm0 0"/><path d="m383.324219 205.21875c0 8.28125 6.714843 15 15 15h77.738281c8.28125 0 15-6.71875 15-15 0-8.285156-6.71875-15-15-15h-77.738281c-8.285157 0-15 6.714844-15 15zm0 0"/></svg>