<svg id="Capa_1" fill="#002957" enable-background="new 0 0 512 512" height="512" viewBox="0 0 512 512" width="512" xmlns="http://www.w3.org/2000/svg"><g><path d="m508.263 246.093c-1.149-1.307-28.664-32.363-73.223-63.692-118.652-83.426-234.667-86.773-358.08 0-44.558 31.329-72.073 62.385-73.222 63.692-4.983 5.665-4.983 14.149 0 19.814 1.149 1.307 28.664 32.363 73.223 63.692 118.652 83.426 234.667 86.773 358.08 0 44.559-31.329 72.073-62.386 73.223-63.692 4.982-5.665 4.982-14.149-.001-19.814zm-143.316 9.907c0 59.752-49.274 107.658-108.946 107.658-59.771 0-108.946-48.006-108.946-107.658 0-59.752 49.274-107.658 108.946-107.658 59.77 0 108.946 48.006 108.946 107.658zm-329.201 0c29.612-29.592 66.664-57.746 105.425-77.42-31.858 46.232-32.475 107.712 0 154.84-38.955-19.772-75.99-48.008-105.425-77.42zm335.083 77.42c31.858-46.232 32.475-107.712 0-154.84 38.955 19.772 75.99 48.008 105.425 77.42-29.549 29.526-66.586 57.707-105.425 77.42z"/><path d="m271 241h8.787l-23.787 23.787-19.419-19.419c-5.852-5.854-15.357-5.858-21.213 0l-29.743 29.744c-5.858 5.858-5.858 15.355 0 21.213 5.857 5.859 15.355 5.857 21.213 0l19.137-19.137 19.419 19.418c5.859 5.858 15.355 5.858 21.213 0l34.393-34.393v3.787c0 8.284 6.716 15 15 15s15-6.716 15-15v-40c0-8.284-6.716-15-15-15h-45c-8.284 0-15 6.716-15 15s6.716 15 15 15z"/><path d="m256 90c8.284 0 15-6.716 15-15v-30c0-8.284-6.716-15-15-15s-15 6.716-15 15v30c0 8.284 6.716 15 15 15z"/><path d="m354 116.259c7.143 4.125 16.33 1.717 20.49-5.49l15-25.98c4.143-7.174 1.685-16.349-5.49-20.49-7.174-4.144-16.349-1.686-20.49 5.49l-15 25.98c-4.143 7.174-1.685 16.348 5.49 20.49z"/><path d="m256 421c-8.284 0-15 6.716-15 15v31c0 8.284 6.716 15 15 15s15-6.716 15-15v-31c0-8.284-6.716-15-15-15z"/><path d="m373.99 400.365c-4.143-7.175-13.316-9.634-20.49-5.49-7.175 4.142-9.633 13.315-5.49 20.49l15.5 26.847c4.155 7.197 13.337 9.621 20.49 5.49 7.175-4.142 9.633-13.315 5.49-20.49z"/><path d="m137.51 110.769c4.155 7.197 13.337 9.621 20.49 5.49 7.175-4.142 9.633-13.316 5.49-20.49l-15-25.98c-4.143-7.176-13.316-9.633-20.49-5.49-7.175 4.142-9.633 13.316-5.49 20.49z"/><path d="m158.5 394.875c-7.174-4.145-16.349-1.684-20.49 5.49l-15.5 26.847c-4.143 7.175-1.685 16.349 5.49 20.49 7.146 4.127 16.331 1.713 20.49-5.49l15.5-26.847c4.143-7.174 1.685-16.348-5.49-20.49z"/></g></svg>